<svg xmlns="http://www.w3.org/2000/svg" width="40" height="40" viewBox="0 0 40 40">
  <g id="Avg._Procedure_Cost" data-name="Avg. Procedure Cost" transform="translate(-15 -15)">
    <circle id="Ellipse_16" data-name="Ellipse 16" cx="20" cy="20" r="20" transform="translate(15 15)" fill="#6de6bf" opacity="0.08"/>
    <path id="Path_414" data-name="Path 414" d="M31.218,31.171a.463.463,0,0,0-.224.068V27.423h3.32V31.24a.443.443,0,0,0-.487.019l-.458.331-.467-.331a.439.439,0,0,0-.506,0l-.458.331-.467-.331A.42.42,0,0,0,31.218,31.171Zm11-3.749v15.94H23.078V27.423h7.05V32.1a.445.445,0,0,0,.243.389.436.436,0,0,0,.448-.039l.409-.312.458.331a.409.409,0,0,0,.506,0l.458-.331.467.331a.424.424,0,0,0,.5,0l.467-.331.4.312a.455.455,0,0,0,.458.039.436.436,0,0,0,.234-.389V27.423ZM28.589,41.473a.428.428,0,0,0-.438-.428H24.792a.428.428,0,0,0-.438.428.434.434,0,0,0,.438.428h3.359A.434.434,0,0,0,28.589,41.473Zm2.152-1.928a.42.42,0,0,0-.428-.428H24.792a.428.428,0,0,0-.438.428.434.434,0,0,0,.438.428h5.521A.426.426,0,0,0,30.741,39.545Z" transform="translate(2.35 -0.393)" fill="#6de6bf"/>
  </g>
</svg>
