<svg xmlns="http://www.w3.org/2000/svg" width="40" height="40" viewBox="0 0 40 40">
  <g id="Avg._Price_of_inventory_items" data-name="Avg. Price of inventory items" transform="translate(-15 -15)">
    <circle id="Ellipse_16" data-name="Ellipse 16" cx="20" cy="20" r="20" transform="translate(15 15)" fill="#7f00ff" opacity="0.08"/>
    <path id="Path_347" data-name="Path 347" d="M14.471,17.346a.228.228,0,0,1,0,.323l-.844.844a.228.228,0,0,1-.358-.048l-.285-.494a.227.227,0,0,1,.394-.226l.137.237.635-.635a.228.228,0,0,1,.323,0Zm-.323,3.459-.635.635-.137-.237a.227.227,0,1,0-.394.226l.285.494a.228.228,0,0,0,.358.048l.844-.844a.228.228,0,0,0-.323-.323Zm0,3.459-.635.635-.137-.237a.227.227,0,1,0-.394.226l.285.494a.228.228,0,0,0,.358.048l.844-.844a.228.228,0,1,0-.323-.323Zm7.185-8.691V26.609a.771.771,0,0,1-.77.77H11.919a.771.771,0,0,1-.77-.77V15.573a.771.771,0,0,1,.77-.77h1.536v.8a.229.229,0,0,0,.228.228H18.8a.229.229,0,0,0,.228-.228v-.8h1.536a.771.771,0,0,1,.77.77ZM15.98,17.254a.228.228,0,0,0,.228.228h2.568a.228.228,0,0,0,0-.456H16.208A.228.228,0,0,0,15.98,17.254Zm-1,6.6a.243.243,0,0,0-.243-.243H12.75a.243.243,0,0,0-.243.243v1.99a.243.243,0,0,0,.243.243h1.99a.243.243,0,0,0,.243-.243v-1.99Zm0-3.459a.243.243,0,0,0-.243-.243H12.75a.243.243,0,0,0-.243.243v1.99a.243.243,0,0,0,.243.243h1.99a.243.243,0,0,0,.243-.243v-1.99Zm0-3.459a.243.243,0,0,0-.243-.243H12.75a.243.243,0,0,0-.243.243v1.99a.243.243,0,0,0,.243.243h1.99a.243.243,0,0,0,.243-.243v-1.99Zm5.22,8.588a.228.228,0,0,0-.228-.228H16.208a.228.228,0,0,0,0,.456h3.767A.228.228,0,0,0,20.2,25.523Zm-4-1.124h2.568a.228.228,0,1,0,0-.456H16.208a.228.228,0,0,0,0,.456Zm4-2.335a.228.228,0,0,0-.228-.228H16.208a.228.228,0,0,0,0,.456h3.767A.228.228,0,0,0,20.2,22.064Zm-4-1.123h2.568a.228.228,0,0,0,0-.456H16.208a.228.228,0,0,0,0,.456Zm4-2.335a.228.228,0,0,0-.228-.228H16.208a.228.228,0,0,0,0,.456h3.767A.228.228,0,0,0,20.2,18.606Zm-1.632-3.233h-4.66v-.9a.448.448,0,0,1,.526-.442l.9.157v-.124a.906.906,0,1,1,1.812,0v.124l.9-.157a.448.448,0,0,1,.526.442v.9Zm-2.049-1.347a.281.281,0,1,0-.281.281A.281.281,0,0,0,16.522,14.026Zm2.731-2.587h-.641v.778h.641Zm6.493,7.642H25.1v.778h.641Zm-7.779-5.5a.905.905,0,0,1,1.052.768h1.6v-2.91h-.905v1.007a.228.228,0,0,1-.228.228h-1.1a.228.228,0,0,1-.228-.228V11.439H17.25v1.707a1.361,1.361,0,0,1,.292.508l.426-.074Zm5.107-2.14h-.641v.778h.641Zm.077,12.241h.641V22.9h-.641Zm1.1.228a.228.228,0,0,1-.228.228h-1.1a.228.228,0,0,1-.228-.228V22.9h-.906v3.365h3.365V22.9h-.905v1.007ZM26.2,19.081v1.007a.228.228,0,0,1-.228.228h-1.1a.228.228,0,0,1-.228-.228V19.081h-.906v3.365h3.365V19.081Zm-2.541-3.043V15.26h-.641v.778Zm.775-4.6H23.53v1.007a.228.228,0,0,1-.228.228H22.2a.228.228,0,0,1-.228-.228V11.439h-.906v3.018a1.234,1.234,0,0,1,.446.346h2.919V11.439Zm-2.646,7.186h3.233V15.26h-.905v1.007a.228.228,0,0,1-.228.228h-1.1a.228.228,0,0,1-.228-.228V15.26h-.814a1.223,1.223,0,0,1,.041.313v3.051Zm1.5.456h-1.5v3.365h1.5Z" transform="translate(15.872 15.592)" fill="#7f00ff"/>
  </g>
</svg>
