<svg xmlns="http://www.w3.org/2000/svg" width="21.427" height="21.402" viewBox="0 0 21.427 21.402">
  <path id="Inventory" d="M15.61,19.371a.306.306,0,0,1,0,.433l-1.134,1.134a.306.306,0,0,1-.481-.065l-.383-.664a.3.3,0,0,1,.529-.3l.184.318.852-.852a.306.306,0,0,1,.433,0Zm-.434,4.644-.852.852-.184-.318a.3.3,0,0,0-.529.3l.383.664a.306.306,0,0,0,.481.065l1.134-1.134a.306.306,0,0,0-.433-.433Zm0,4.644-.852.852-.184-.318a.3.3,0,0,0-.529.3l.383.664a.306.306,0,0,0,.481.065l1.134-1.134a.306.306,0,1,0-.433-.433ZM24.823,16.99V31.807a1.035,1.035,0,0,1-1.033,1.033H12.182a1.035,1.035,0,0,1-1.033-1.033V16.99a1.035,1.035,0,0,1,1.033-1.033h2.063v1.07a.307.307,0,0,0,.306.306h6.869a.307.307,0,0,0,.306-.306v-1.07H23.79a1.035,1.035,0,0,1,1.033,1.033Zm-7.188,2.257a.306.306,0,0,0,.306.306h3.448a.306.306,0,0,0,0-.613H17.942A.306.306,0,0,0,17.635,19.247ZM16.3,28.106a.327.327,0,0,0-.326-.326H13.3a.327.327,0,0,0-.326.326v2.672a.327.327,0,0,0,.326.326h2.672a.327.327,0,0,0,.326-.326V28.106Zm0-4.644a.327.327,0,0,0-.326-.326H13.3a.327.327,0,0,0-.326.326v2.672a.327.327,0,0,0,.326.326h2.672a.327.327,0,0,0,.326-.326V23.462Zm0-4.644a.327.327,0,0,0-.326-.326H13.3a.327.327,0,0,0-.326.326V21.49a.327.327,0,0,0,.326.326h2.672a.327.327,0,0,0,.326-.326V18.818Zm7.009,11.532A.306.306,0,0,0,23,30.043H17.942a.306.306,0,1,0,0,.613H23A.306.306,0,0,0,23.306,30.349Zm-5.364-1.509h3.448a.306.306,0,0,0,0-.613H17.942a.306.306,0,0,0,0,.613Zm5.364-3.136A.306.306,0,0,0,23,25.4H17.942a.306.306,0,1,0,0,.613H23A.306.306,0,0,0,23.306,25.705ZM17.942,24.2h3.448a.306.306,0,1,0,0-.613H17.942a.306.306,0,1,0,0,.613Zm5.364-3.136A.306.306,0,0,0,23,20.755H17.942a.306.306,0,1,0,0,.613H23A.306.306,0,0,0,23.306,21.061ZM21.114,16.72H14.857V15.509a.6.6,0,0,1,.706-.593l1.206.211V14.96a1.217,1.217,0,1,1,2.433,0v.167l1.206-.211a.6.6,0,0,1,.706.593V16.72Zm-2.752-1.808a.377.377,0,1,0-.377.377A.378.378,0,0,0,18.363,14.912Zm3.667-3.473h-.861v1.045h.861ZM30.748,21.7h-.861v1.045h.861ZM20.3,14.313a1.215,1.215,0,0,1,1.413,1.031H23.79l.068,0V11.439H22.643V12.79a.306.306,0,0,1-.306.306H20.863a.306.306,0,0,1-.306-.306V11.439H19.34v2.292a1.827,1.827,0,0,1,.391.682l.571-.1Zm6.857-2.874H26.3v1.045h.861Zm.1,16.436h.861V26.83h-.861Zm1.474.306a.306.306,0,0,1-.306.306H26.958a.306.306,0,0,1-.306-.306V26.83H25.436v4.518h4.518V26.83H28.738v1.351ZM31.36,21.7v1.351a.306.306,0,0,1-.306.306H29.581a.306.306,0,0,1-.306-.306V21.7H28.058v4.518h4.518V21.7Zm-3.412-4.085V16.569h-.861v1.045Zm1.04-6.176H27.773V12.79a.306.306,0,0,1-.306.306H25.993a.306.306,0,0,1-.306-.306V11.439H24.471v4.053a1.657,1.657,0,0,1,.6.465h3.919V11.439Zm-3.553,9.648h4.341V16.569H28.561v1.351a.306.306,0,0,1-.306.306H26.781a.306.306,0,0,1-.306-.306V16.569H25.381a1.642,1.642,0,0,1,.055.42v4.1Zm2.01.613h-2.01v4.518h2.01Z" transform="translate(-11.149 -11.439)" fill="#fff"/>
</svg>
