<svg xmlns="http://www.w3.org/2000/svg" width="40" height="40" viewBox="0 0 40 40">
  <g id="Inventory_Expiry_Soon" data-name="Inventory Expiry Soon" transform="translate(-15 -15)">
    <circle id="Ellipse_16" data-name="Ellipse 16" cx="20" cy="20" r="20" transform="translate(15 15)" fill="red" opacity="0.08"/>
    <g id="Layer_x0020_1" transform="translate(26.723 27)">
      <g id="_326955848">
        <path id="_326957024" d="M96.739,26.08l-.161.6a.247.247,0,0,1-.477-.128l.161-.6a.247.247,0,0,1,.477.128ZM98.3,26.8l-.311.538a.247.247,0,0,1-.427-.246l.311-.538a.247.247,0,1,1,.427.246Z" transform="translate(-86.79 -24.392)" fill="red" fill-rule="evenodd"/>
        <path id="_326957336" d="M26.5,21.048A7.994,7.994,0,1,0,21.23,28.57a3.818,3.818,0,0,1-.927-1.1l-.038-.069a6.58,6.58,0,0,1-1.38.228q-.191.011-.385.011t-.385-.011a6.585,6.585,0,0,1-6.2-6.2q-.011-.191-.011-.385t.011-.385a6.585,6.585,0,0,1,6.2-6.2q.191-.011.385-.011t.385.011a6.585,6.585,0,0,1,6.2,6.2q.011.191.011.385t-.011.385q-.019.326-.069.643l.073.03a3.809,3.809,0,0,1,1.2.8,8.011,8.011,0,0,0,.217-1.854Z" transform="translate(-10.499 -13.048)" fill="red" fill-rule="evenodd"/>
        <path id="_326957648" d="M104.417,97.392a3.424,3.424,0,1,0,1.224.869A3.41,3.41,0,0,0,104.417,97.392Zm-1.319.654a.478.478,0,0,1,.477.477v2.393a.477.477,0,1,1-.954,0V98.523A.478.478,0,0,1,103.1,98.046Zm0,4.057a.474.474,0,1,1-.474.474A.474.474,0,0,1,103.1,102.1Z" transform="translate(-89.965 -87.969)" fill="red" fill-rule="evenodd"/>
        <path id="_326957288" d="M77.549,44.823l-.774-1.007a.133.133,0,0,0-.217,0l-.774,1.007a.128.128,0,0,0-.01.139.131.131,0,0,0,.119.073h.22a.134.134,0,0,1,.133.133v2.586a.8.8,0,0,1,.841,0V45.168a.134.134,0,0,1,.133-.133h.22a.131.131,0,0,0,.119-.073A.128.128,0,0,0,77.549,44.823Z" transform="translate(-68.667 -40.42)" fill="red" fill-rule="evenodd"/>
        <path id="_326957144" d="M77.982,79.43a.8.8,0,0,0-.841,0,.8.8,0,0,0-.379.68.8.8,0,1,0,1.22-.68Z" transform="translate(-69.562 -72.11)" fill="red" fill-rule="evenodd"/>
        <path id="_326957624" d="M51.07,78.8H49.2a.134.134,0,0,1-.133-.133v-.22a.131.131,0,0,0-.073-.119.128.128,0,0,0-.139.01l-1.007.774a.133.133,0,0,0,0,.217l1.007.774a.128.128,0,0,0,.139.01.131.131,0,0,0,.073-.119v-.22a.134.134,0,0,1,.133-.133H51.07a.8.8,0,0,1,0-.841Z" transform="translate(-43.734 -71.216)" fill="red" fill-rule="evenodd"/>
        <path id="_326957072" d="M81.37,25.755q-.191-.011-.384-.011t-.384.011v.9a.384.384,0,1,0,.768,0Z" transform="translate(-72.986 -24.37)" fill="red" fill-rule="evenodd"/>
        <path id="_326956736" d="M119.064,41.7q-.127-.143-.264-.279t-.279-.264l-.634.634a.384.384,0,0,0,.543.543Z" transform="translate(-106.119 -38.106)" fill="red" fill-rule="evenodd"/>
        <path id="_326956784" d="M134.447,83.919q.011-.191.011-.384t-.011-.384h-.9a.384.384,0,1,0,0,.768Z" transform="translate(-119.83 -75.535)" fill="red" fill-rule="evenodd"/>
        <path id="_326956640" d="M80.6,137q.191.011.384.011T81.37,137v-.9a.384.384,0,1,0-.768,0Z" transform="translate(-72.986 -122.381)" fill="red" fill-rule="evenodd"/>
        <path id="_326956256" d="M38.612,121.07q.127.143.264.279t.279.264l.634-.634a.384.384,0,0,0-.543-.543Z" transform="translate(-35.557 -108.667)" fill="red" fill-rule="evenodd"/>
        <path id="_326956520" d="M23.206,83.151q-.011.191-.011.384t.011.384h.9a.384.384,0,1,0,0-.768Z" transform="translate(-21.821 -75.535)" fill="red" fill-rule="evenodd"/>
        <path id="_326956400" d="M39.155,41.161q-.143.127-.279.264t-.264.279l.634.634a.384.384,0,0,0,.543-.543Z" transform="translate(-35.557 -38.106)" fill="red" fill-rule="evenodd"/>
        <path id="_326956424" d="M130.38,54.52l-.539.311a.247.247,0,1,1-.247-.428l.539-.311a.247.247,0,1,1,.247.428Zm.6,1.609-.6.161a.247.247,0,1,1-.128-.476l.6-.161a.247.247,0,0,1,.128.476Z" transform="translate(-116.534 -49.602)" fill="red" fill-rule="evenodd"/>
        <path id="_326955440" d="M53.108,133.4l.161-.6a.247.247,0,1,1,.477.128l-.161.6a.247.247,0,0,1-.477-.128Zm-1.559-.716.311-.538a.247.247,0,1,1,.427.246l-.311.538a.247.247,0,1,1-.427-.246Z" transform="translate(-47.058 -119.088)" fill="red" fill-rule="evenodd"/>
        <path id="_326955728" d="M24.008,100.425l.539-.311a.247.247,0,0,1,.247.428l-.539.311a.247.247,0,1,1-.247-.428Zm-.6-1.609.6-.161a.247.247,0,1,1,.128.476l-.6.161a.247.247,0,1,1-.128-.476Z" transform="translate(-21.852 -89.343)" fill="red" fill-rule="evenodd"/>
        <path id="_326955680" d="M23.531,55.657l.6.161A.247.247,0,1,1,24,56.3l-.6-.161a.247.247,0,0,1,.128-.477Zm.716-1.559.538.311a.247.247,0,1,1-.246.427L24,54.525a.247.247,0,0,1,.246-.427Z" transform="translate(-21.843 -49.607)" fill="red" fill-rule="evenodd"/>
        <path id="_326955584" d="M51.971,26.557l.311.539a.247.247,0,0,1-.428.247l-.311-.539a.247.247,0,1,1,.428-.247Zm1.609-.6.161.6a.247.247,0,1,1-.476.128l-.161-.6a.247.247,0,1,1,.476-.128Z" transform="translate(-47.053 -24.401)" fill="red" fill-rule="evenodd"/>
      </g>
    </g>
  </g>
</svg>
