<svg xmlns="http://www.w3.org/2000/svg" width="21.427" height="21.427" viewBox="0 0 21.427 21.427">
  <path id="Log_Out" data-name="Log Out" d="M5.231,0H16.2a5.241,5.241,0,0,1,5.231,5.231V16.2A5.241,5.241,0,0,1,16.2,21.427H5.231A5.241,5.241,0,0,1,0,16.2V5.231A5.241,5.241,0,0,1,5.231,0Zm7.685,9.038.753.753H10.006v1.845h3.663l-.753.753,1.3,1.3L17.2,10.713,14.221,7.734ZM6.071,10.713a3.792,3.792,0,0,1,5.865-3.174L12.947,6a5.636,5.636,0,1,0,0,9.434l-1.011-1.543a3.792,3.792,0,0,1-5.865-3.174Z" fill="#fff" fill-rule="evenodd"/>
</svg>
