<svg xmlns="http://www.w3.org/2000/svg" width="42" height="42" viewBox="0 0 42 42">
  <g id="Our_Patients" data-name="Our Patients" transform="translate(-27 -25)">
    <circle id="Ellipse_9" data-name="Ellipse 9" cx="21" cy="21" r="21" transform="translate(27 25)" fill="#fff200" opacity="0.08"/>
    <g id="Group_23607" data-name="Group 23607" transform="translate(38 36)">
      <path id="Path_399" data-name="Path 399" d="M39.748,4.652h3.4a.667.667,0,0,0,.668-.668V2.668A.667.667,0,0,0,43.151,2h-3.4a.665.665,0,0,0-.668.668V3.984A.667.667,0,0,0,39.748,4.652Z" transform="translate(-27.019 -2)" fill="#fff200"/>
      <path id="Path_400" data-name="Path 400" d="M35.343,31.88c0,.045,0,.09,0,.135a1.017,1.017,0,0,0,0-1.726Z" transform="translate(-24.567 -21.164)" fill="#fff200"/>
      <path id="Path_401" data-name="Path 401" d="M9.07,32.022c-.01-.1-.013-.2-.013-.3V30.29a1.017,1.017,0,0,0,.013,1.732Z" transform="translate(-6.628 -21.164)" fill="#fff200"/>
      <path id="Path_402" data-name="Path 402" d="M18.928,18.719v-.652a1.876,1.876,0,0,0-1.874-1.877H13.937a1.877,1.877,0,0,0-1.877,1.877v.655a10.472,10.472,0,0,1,6.868,0Z" transform="translate(-8.904 -11.613)" fill="#fff200"/>
      <path id="Path_403" data-name="Path 403" d="M41.285,24.1a2.445,2.445,0,1,0-2.445-2.445A2.444,2.444,0,0,0,41.285,24.1Zm-1-2.768h.677v-.677a.323.323,0,0,1,.645,0v.677h.677a.323.323,0,0,1,0,.645h-.677v.677a.323.323,0,1,1-.645,0v-.677h-.677a.323.323,0,0,1,0-.645Z" transform="translate(-26.856 -13.658)" fill="#fff200"/>
      <path id="Path_404" data-name="Path 404" d="M46.28,4.04H44.8V5.369h1.152V17.585H39.57a2.525,2.525,0,0,1,1.468,1.332H46.28a1,1,0,0,0,1-1V5.04a1,1,0,0,0-1-1Z" transform="translate(-27.279 -3.382)" fill="#fff200"/>
      <path id="Path_405" data-name="Path 405" d="M30.712,8.224V5.379h1.152V4.05H30.38a1,1,0,0,0-1,1V7.4A2.5,2.5,0,0,1,30.712,8.224Z" transform="translate(-20.546 -3.389)" fill="#fff200"/>
      <path id="Path_406" data-name="Path 406" d="M14.133,46.371,11.649,45.7v.384A2.616,2.616,0,0,1,9.036,48.7h0a2.616,2.616,0,0,1-2.61-2.613V45.7l-2.484.668a1.906,1.906,0,0,0-1.41,1.839v3.4H5.1V49.432a.323.323,0,0,1,.645,0V51.6h6.574V49.432a.323.323,0,0,1,.645,0V51.6h2.574V48.21A1.9,1.9,0,0,0,14.133,46.371Z" transform="translate(-2.53 -31.603)" fill="#fff200"/>
      <path id="Path_407" data-name="Path 407" d="M16.61,46.16V46.4a1.966,1.966,0,1,0,3.932,0V46.2a4.061,4.061,0,0,1-1.968.506h-.106A3.805,3.805,0,0,1,16.61,46.16Z" transform="translate(-11.969 -31.915)" fill="#fff200"/>
      <path id="Path_408" data-name="Path 408" d="M14.063,27.635a3.978,3.978,0,0,1,2.836.019l1.839-1.665a.326.326,0,0,1,.19-.074V24.854a9.865,9.865,0,0,0-6.868,0v1.074a.309.309,0,0,1,.11.061ZM16.55,25.9a.334.334,0,1,1-.332.332A.335.335,0,0,1,16.55,25.9Zm-2.113,0a.334.334,0,1,1-.332.332A.332.332,0,0,1,14.437,25.9Z" transform="translate(-8.904 -17.064)" fill="#fff200"/>
      <path id="Path_409" data-name="Path 409" d="M12.06,32.02v.871a3.674,3.674,0,0,0,.842,2.3l.829-.39V33.465Z" transform="translate(-8.927 -22.336)" fill="#fff200"/>
      <path id="Path_410" data-name="Path 410" d="M29.678,32.924V31.83L27.93,33.411v1.255l.926.484A3.4,3.4,0,0,0,29.678,32.924Z" transform="translate(-19.58 -22.207)" fill="#fff200"/>
      <path id="Path_411" data-name="Path 411" d="M19.579,42.28a4.012,4.012,0,0,1-2.69.006l-.739.345a3.25,3.25,0,0,0,2.023.8,3.417,3.417,0,0,0,2.21-.732Z" transform="translate(-11.659 -29.286)" fill="#fff200"/>
    </g>
  </g>
</svg>
