<svg xmlns="http://www.w3.org/2000/svg" width="21.427" height="21.427" viewBox="0 0 21.427 21.427">
  <g id="Patients" transform="translate(-2.53 -2)">
    <path id="Path_399" data-name="Path 399" d="M39.8,4.841h3.646a.715.715,0,0,0,.715-.715V2.715A.715.715,0,0,0,43.441,2H39.8a.712.712,0,0,0-.715.715v1.41A.715.715,0,0,0,39.8,4.841Z" transform="translate(-23.629)" fill="#fff"/>
    <path id="Path_400" data-name="Path 400" d="M35.343,31.994c0,.048,0,.1,0,.145a1.089,1.089,0,0,0,0-1.849Z" transform="translate(-21.269 -18.513)" fill="#fff"/>
    <path id="Path_401" data-name="Path 401" d="M9.105,32.146c-.01-.107-.014-.214-.014-.321V30.29a1.09,1.09,0,0,0,.014,1.856Z" transform="translate(-3.959 -18.513)" fill="#fff"/>
    <path id="Path_402" data-name="Path 402" d="M19.418,18.9v-.7A2.01,2.01,0,0,0,17.41,16.19H14.071A2.011,2.011,0,0,0,12.06,18.2v.7a11.219,11.219,0,0,1,7.358,0Z" transform="translate(-6.148 -9.286)" fill="#fff"/>
    <path id="Path_403" data-name="Path 403" d="M41.46,24.449a2.62,2.62,0,1,0-2.62-2.62A2.618,2.618,0,0,0,41.46,24.449Zm-1.068-2.965h.726v-.726a.346.346,0,1,1,.691,0v.726h.726a.346.346,0,0,1,0,.691h-.726V22.9a.346.346,0,1,1-.691,0v-.726h-.726a.346.346,0,0,1,0-.691Z" transform="translate(-23.471 -11.262)" fill="#fff"/>
    <path id="Path_404" data-name="Path 404" d="M46.758,4.04h-1.59V5.464H46.4V18.552H39.57a2.705,2.705,0,0,1,1.572,1.427h5.616a1.072,1.072,0,0,0,1.071-1.071V5.111A1.072,1.072,0,0,0,46.758,4.04Z" transform="translate(-23.873 -1.335)" fill="#fff"/>
    <path id="Path_405" data-name="Path 405" d="M30.807,8.522V5.474h1.234V4.05h-1.59A1.072,1.072,0,0,0,29.38,5.121V7.637A2.678,2.678,0,0,1,30.807,8.522Z" transform="translate(-17.386 -1.342)" fill="#fff"/>
    <path id="Path_406" data-name="Path 406" d="M14.961,46.419,12.3,45.7v.411a2.8,2.8,0,0,1-2.8,2.8h0a2.8,2.8,0,0,1-2.8-2.8V45.7l-2.661.715a2.042,2.042,0,0,0-1.51,1.97v3.639H5.288V49.7a.346.346,0,1,1,.691,0v2.326h7.043V49.7a.346.346,0,1,1,.691,0v2.326h2.758V48.389A2.031,2.031,0,0,0,14.961,46.419Z" transform="translate(0 -28.598)" fill="#fff"/>
    <path id="Path_407" data-name="Path 407" d="M16.61,46.16v.252a2.106,2.106,0,1,0,4.213,0V46.2a4.35,4.35,0,0,1-2.108.543H18.6A4.077,4.077,0,0,1,16.61,46.16Z" transform="translate(-9.108 -28.899)" fill="#fff"/>
    <path id="Path_408" data-name="Path 408" d="M14.206,27.877a4.262,4.262,0,0,1,3.038.021l1.97-1.783a.349.349,0,0,1,.2-.079V24.9a10.569,10.569,0,0,0-7.358,0v1.151a.331.331,0,0,1,.118.066Zm2.665-1.859a.358.358,0,1,1-.356.356.358.358,0,0,1,.356-.356Zm-2.264,0a.358.358,0,1,1-.356.356.355.355,0,0,1,.356-.356Z" transform="translate(-6.148 -14.552)" fill="#fff"/>
    <path id="Path_409" data-name="Path 409" d="M12.06,32.02v.933a3.936,3.936,0,0,0,.9,2.468L13.85,35V33.568Z" transform="translate(-6.174 -19.645)" fill="#fff"/>
    <path id="Path_410" data-name="Path 410" d="M29.8,33V31.83L27.93,33.523v1.344l.992.518A3.644,3.644,0,0,0,29.8,33Z" transform="translate(-16.454 -19.521)" fill="#fff"/>
    <path id="Path_411" data-name="Path 411" d="M19.824,42.28a4.3,4.3,0,0,1-2.882.007l-.791.37a3.482,3.482,0,0,0,2.167.857,3.661,3.661,0,0,0,2.367-.785Z" transform="translate(-8.809 -26.359)" fill="#fff"/>
  </g>
</svg>
