<svg xmlns="http://www.w3.org/2000/svg" width="21.427" height="21.427" viewBox="0 0 21.427 21.427">
  <g id="Procedure_Reports" data-name="Procedure Reports" transform="translate(-3 -3.001)">
    <path id="Path_443" data-name="Path 443" d="M46.847,28.549A4.819,4.819,0,0,0,45,24.77v1a4.045,4.045,0,0,1,0,5.564v1a4.819,4.819,0,0,0,1.847-3.779Z" transform="translate(-26.484 -13.727)" fill="#fff"/>
    <path id="Path_444" data-name="Path 444" d="M45,30.89v3.037a3.3,3.3,0,0,0,0-3.037Z" transform="translate(-26.484 -17.586)" fill="#fff"/>
    <path id="Path_445" data-name="Path 445" d="M49.895,20.624l-.643-.052a.363.363,0,0,1-.318-.236,7.143,7.143,0,0,0-.381-.924.367.367,0,0,1,.048-.4l.417-.491a1.114,1.114,0,0,0-.059-1.5l-1.289-1.289a1.109,1.109,0,0,0-1.5-.059l-.5.417a.363.363,0,0,1-.392.052c-.092-.048-.185-.092-.281-.133v1.958a5.529,5.529,0,0,1,0,9.361v1.958c.092-.041.185-.085.277-.129a.367.367,0,0,1,.4.048l.491.417a1.125,1.125,0,0,0,1.5-.059l1.289-1.289a1.109,1.109,0,0,0,.059-1.5l-.417-.5a.363.363,0,0,1-.052-.392,7.079,7.079,0,0,0,.384-.924.36.36,0,0,1,.314-.24l.65-.052a1.121,1.121,0,0,0,1.012-1.108V21.732a1.121,1.121,0,0,0-1.016-1.108Z" transform="translate(-26.484 -7.823)" fill="#fff"/>
    <path id="Path_446" data-name="Path 446" d="M13.108,8.173h5.911a1.11,1.11,0,0,0,1.108-1.108V5.587a1.11,1.11,0,0,0-1.108-1.108H17.873a1.847,1.847,0,0,0-3.619,0H13.108A1.11,1.11,0,0,0,12,5.587V7.064A1.11,1.11,0,0,0,13.108,8.173Zm2.955-3.694a.369.369,0,1,1-.369.369A.369.369,0,0,1,16.064,4.478Z" transform="translate(-5.675)" fill="#fff"/>
    <circle id="Ellipse_18" data-name="Ellipse 18" cx="0.5" cy="0.5" r="0.5" transform="translate(10 14.46)" fill="#fff"/>
    <circle id="Ellipse_19" data-name="Ellipse 19" transform="translate(13 16.46)" fill="#fff"/>
    <path id="Path_447" data-name="Path 447" d="M30,45h.739v2.217H30Z" transform="translate(-17.025 -26.484)" fill="#fff"/>
    <path id="Path_448" data-name="Path 448" d="M15.93,9h-.776a1.742,1.742,0,0,1,.037.369v1.108h.739a.369.369,0,0,1,.369.369V26.363a.369.369,0,0,1-.369.369H4.847a.369.369,0,0,1-.369-.369V10.847a.369.369,0,0,1,.369-.369h.739V9.369A1.742,1.742,0,0,1,5.623,9H4.847A1.848,1.848,0,0,0,3,10.847V26.363A1.848,1.848,0,0,0,4.847,28.21H15.93a1.848,1.848,0,0,0,1.847-1.847V10.847A1.848,1.848,0,0,0,15.93,9Z" transform="translate(0 -3.783)" fill="#fff"/>
    <path id="Path_449" data-name="Path 449" d="M22,41h.739v3.694H22Z" transform="translate(-11.981 -23.961)" fill="#fff"/>
    <circle id="Ellipse_20" data-name="Ellipse 20" cx="0.5" cy="0.5" r="0.5" transform="translate(7 16.46)" fill="#fff"/>
    <path id="Path_450" data-name="Path 450" d="M14,47h.739v1.478H14Z" transform="translate(-6.936 -27.745)" fill="#fff"/>
    <path id="Path_451" data-name="Path 451" d="M9,29.778H19.344V15h-.407a1.848,1.848,0,0,1-1.81,1.478H11.217A1.848,1.848,0,0,1,9.407,15H9Zm6.28-1.108a.369.369,0,0,1-.369.369H13.433a.369.369,0,0,1-.369-.369V24.236a.369.369,0,0,1,.369-.369h1.478a.369.369,0,0,1,.369.369Zm2.955,0a.369.369,0,0,1-.369.369H16.389a.369.369,0,0,1-.369-.369V25.714a.369.369,0,0,1,.369-.369h1.478a.369.369,0,0,1,.369.369ZM12.325,16.847H15.28a.369.369,0,1,1,0,.739H12.325a.369.369,0,0,1,0-.739Zm0,1.478h5.541a.369.369,0,1,1,0,.739H12.325a.369.369,0,1,1,0-.739Zm0,1.478h4.433a.369.369,0,1,1,0,.739H12.325a.369.369,0,1,1,0-.739Zm-1.847-2.955h.369a.369.369,0,0,1,0,.739h-.369a.369.369,0,1,1,0-.739Zm0,1.478h.369a.369.369,0,1,1,0,.739h-.369a.369.369,0,1,1,0-.739Zm0,1.478h.369a.369.369,0,1,1,0,.739h-.369a.369.369,0,1,1,0-.739Zm.739,3.694a1.1,1.1,0,0,1,.613.186l1.289-.967a1.093,1.093,0,0,1-.055-.328,1.108,1.108,0,1,1,2.217,0,1.087,1.087,0,0,1-.013.133l1.092.549a1.106,1.106,0,1,1-.34.8,1.086,1.086,0,0,1,.013-.133l-1.092-.549a1.1,1.1,0,0,1-1.382.126l-1.289.967a1.093,1.093,0,0,1,.055.328A1.108,1.108,0,1,1,11.217,23.5Zm-1.108,2.955a.369.369,0,0,1,.369-.369h1.478a.369.369,0,0,1,.369.369v2.217a.369.369,0,0,1-.369.369H10.478a.369.369,0,0,1-.369-.369Z" transform="translate(-3.783 -7.567)" fill="#fff"/>
  </g>
</svg>
