<svg xmlns="http://www.w3.org/2000/svg" width="21.427" height="21.427" viewBox="0 0 21.427 21.427">
  <path id="Setting" d="M20.866,8.551l-1.844-.318a8.663,8.663,0,0,0-.667-1.639l1.07-1.518a.672.672,0,0,0-.073-.867L17.225,2.081a.674.674,0,0,0-.867-.074l-1.5,1.055a8.641,8.641,0,0,0-1.67-.7l-.31-1.8a.675.675,0,0,0-.666-.561H9.209a.675.675,0,0,0-.666.561l-.31,1.8a8.641,8.641,0,0,0-1.67.7L5.069,2.007a.675.675,0,0,0-.868.074L2.074,4.209A.673.673,0,0,0,2,5.076L3.071,6.594A8.624,8.624,0,0,0,2.4,8.232L.561,8.551A.674.674,0,0,0,0,9.216v3.008a.674.674,0,0,0,.561.666l1.882.325a8.614,8.614,0,0,0,.666,1.579L2,16.365a.674.674,0,0,0,.074.867L4.2,19.359a.675.675,0,0,0,.868.074l1.595-1.126a8.6,8.6,0,0,0,1.547.637l.333,1.928a.674.674,0,0,0,.665.561h3.008a.674.674,0,0,0,.666-.561l.332-1.928a8.6,8.6,0,0,0,1.548-.637l1.595,1.126a.674.674,0,0,0,.867-.074l2.127-2.127a.672.672,0,0,0,.073-.867l-1.108-1.572a8.583,8.583,0,0,0,.666-1.578l1.884-.325a.675.675,0,0,0,.561-.666V9.216a.675.675,0,0,0-.561-.666ZM10.713,5.968A4.753,4.753,0,1,1,5.96,10.72a4.753,4.753,0,0,1,4.753-4.753Zm0,9a4.251,4.251,0,1,1,4.25-4.25A4.251,4.251,0,0,1,10.713,14.971Z" transform="translate(0 -0.007)" fill="#fff" fill-rule="evenodd"/>
</svg>
