<svg xmlns="http://www.w3.org/2000/svg" width="19.479" height="21.427" viewBox="0 0 19.479 21.427">
  <path id="Shops" d="M2.974,3.887A2.922,2.922,0,0,1,5.9,1H17.583A2.922,2.922,0,0,1,20.5,3.887l.7,10.685a.974.974,0,0,1-.972,1.038H3.247a.974.974,0,0,1-.972-1.038Zm8.765,4.9A1.948,1.948,0,0,1,9.791,6.844V5.87a.974.974,0,0,0-1.948,0v.974a3.9,3.9,0,0,0,7.792,0V5.87a.974.974,0,1,0-1.948,0v.974A1.948,1.948,0,0,1,11.739,8.792ZM21.479,19.5v-.024l-.05-1a.974.974,0,0,0-.973-.926H3.022a.974.974,0,0,0-.973.926l-.05,1V19.5a2.922,2.922,0,0,0,2.922,2.922H18.557A2.922,2.922,0,0,0,21.479,19.5Z" transform="translate(-2 -1)" fill="#fff" fill-rule="evenodd"/>
</svg>
