<svg xmlns="http://www.w3.org/2000/svg" width="72" height="38" viewBox="0 0 72 38">
  <g id="Sync_your_stock_items" data-name="Sync your stock items" transform="translate(-246 -124)">
    <path id="Rectangle_2872" data-name="Rectangle 2872" d="M3,0H3A3,3,0,0,1,6,3V16a1,1,0,0,1-1,1H1a1,1,0,0,1-1-1V3A3,3,0,0,1,3,0Z" transform="translate(246 145)" fill="#ff5c45" opacity="0.1"/>
    <path id="Rectangle_2873" data-name="Rectangle 2873" d="M3,0H3A3,3,0,0,1,6,3V24a1,1,0,0,1-1,1H1a1,1,0,0,1-1-1V3A3,3,0,0,1,3,0Z" transform="translate(257 137)" fill="#ff5c45" opacity="0.1"/>
    <path id="Rectangle_2874" data-name="Rectangle 2874" d="M3,0H3A3,3,0,0,1,6,3V14a1,1,0,0,1-1,1H1a1,1,0,0,1-1-1V3A3,3,0,0,1,3,0Z" transform="translate(268 147)" fill="#ff5c45" opacity="0.1"/>
    <path id="Rectangle_2875" data-name="Rectangle 2875" d="M3,0H3A3,3,0,0,1,6,3V31a1,1,0,0,1-1,1H1a1,1,0,0,1-1-1V3A3,3,0,0,1,3,0Z" transform="translate(279 130)" fill="#5096ff"/>
    <path id="Rectangle_2876" data-name="Rectangle 2876" d="M3,0H3A3,3,0,0,1,6,3V24a1,1,0,0,1-1,1H1a1,1,0,0,1-1-1V3A3,3,0,0,1,3,0Z" transform="translate(290 137)" fill="#ff5c45" opacity="0.1"/>
    <path id="Rectangle_2877" data-name="Rectangle 2877" d="M3,0H3A3,3,0,0,1,6,3V37a1,1,0,0,1-1,1H1a1,1,0,0,1-1-1V3A3,3,0,0,1,3,0Z" transform="translate(301 124)" fill="#ff7a68"/>
    <path id="Rectangle_2878" data-name="Rectangle 2878" d="M3,0H3A3,3,0,0,1,6,3V27a1,1,0,0,1-1,1H1a1,1,0,0,1-1-1V3A3,3,0,0,1,3,0Z" transform="translate(312 134)" fill="#ff5c45" opacity="0.1"/>
  </g>
</svg>
