<svg xmlns="http://www.w3.org/2000/svg" width="22.805" height="21.427" viewBox="0 0 22.805 21.427">
  <path id="Support" d="M22.805,21.932c0-2.025-1.243-3.687-2.808-3.813q-.049-.064-.1-.125a9.568,9.568,0,0,0-2.426-6.234A8.106,8.106,0,0,0,11.4,8.929a8.106,8.106,0,0,0-6.066,2.832A9.569,9.569,0,0,0,2.91,17.994q-.054.06-.1.125C1.243,18.245,0,19.906,0,21.932s1.243,3.687,2.808,3.813a2.28,2.28,0,0,0,4.093-1.4V19.518a2.29,2.29,0,0,0-1.648-2.206C5.61,14,8.331,11.244,11.4,11.244S17.166,14,17.523,17.311a2.31,2.31,0,0,0-1.67,2.206v4.828a2.3,2.3,0,0,0,1.987,2.26,2.6,2.6,0,0,1-2.454,1.127H15.15a11.259,11.259,0,0,1-1.4-.085,1.983,1.983,0,0,0-1.867-1.3h-.7a2.007,2.007,0,0,0,0,4.013h.7a2,2,0,0,0,1.212-.442,12.893,12.893,0,0,0,2.052.133h.236a5.133,5.133,0,0,0,3.879-1.476,5.078,5.078,0,0,0,1.286-2.944A3.767,3.767,0,0,0,22.805,21.932Z" transform="translate(0 -8.929)" fill="#fff"/>
</svg>
