<svg xmlns="http://www.w3.org/2000/svg" width="21.427" height="21.427" viewBox="0 0 21.427 21.427">
  <g id="Users" transform="translate(-0.989 -0.999)">
    <path id="Path_393" data-name="Path 393" d="M14.285,13.57A4.285,4.285,0,1,1,18.57,9.285a4.285,4.285,0,0,1-4.285,4.285Zm0-7.142a2.857,2.857,0,1,0,2.857,2.857A2.857,2.857,0,0,0,14.285,6.428Z" transform="translate(-2.575 -1.143)" fill="#fff"/>
    <path id="Path_394" data-name="Path 394" d="M12.539,27.5a10.713,10.713,0,0,1-8.278-3.921l-.371-.457.371-.45a10.713,10.713,0,0,1,16.555,0l.371.45-.371.457A10.713,10.713,0,0,1,12.539,27.5ZM5.761,23.132a9.285,9.285,0,0,0,13.57,0,9.285,9.285,0,0,0-13.57,0Z" transform="translate(-0.829 -5.077)" fill="#fff"/>
    <path id="Path_395" data-name="Path 395" d="M11.71,22.426A10.713,10.713,0,1,1,19.987,18.5a10.713,10.713,0,0,1-8.278,3.921Zm0-20a9.285,9.285,0,1,0,9.285,9.285A9.285,9.285,0,0,0,11.71,2.428Z" transform="translate(0)" fill="#fff"/>
    <path id="Path_396" data-name="Path 396" d="M5.18,23.379s7.192,8.035,14.513.8l.943-.8s-6.114-6.342-12.32-2.535Z" transform="translate(-1.198 -5.324)" fill="#fff"/>
    <circle id="Ellipse_4" data-name="Ellipse 4" cx="3.571" cy="3.571" r="3.571" transform="translate(8.139 4.571)" fill="#fff"/>
  </g>
</svg>
